<?xml version="1.0" encoding="iso-8859-1"?>
<!-- Generator: Adobe Illustrator 17.0.0, SVG Export Plug-In . SVG Version: 6.00 Build 0)  -->
<!DOCTYPE svg PUBLIC "-//W3C//DTD SVG 1.1//EN" "http://www.w3.org/Graphics/SVG/1.1/DTD/svg11.dtd">
<svg version="1.1" id="Calque_1" xmlns="http://www.w3.org/2000/svg" xmlns:xlink="http://www.w3.org/1999/xlink" x="0px" y="0px"
	 width="21px" height="21px" viewBox="0 0 21 21" style="enable-background:new 0 0 21 21;" xml:space="preserve">
<path style="fill:#3E4550;" d="M17.054,15.5H4.946c-1.555,0-2.446-0.928-2.446-2.545V6.379C2.5,4.63,3.46,3.5,4.946,3.5h12.107
	c1.486,0,2.446,1.13,2.446,2.879v6.576C19.5,14.572,18.608,15.5,17.054,15.5z M4.578,13.444c0,0,0.084,0.056,0.368,0.056h12.107
	c0.287,0,0.37-0.057,0.371-0.058l0,0c0,0,0.076-0.104,0.076-0.488V6.379C17.5,5.5,17.188,5.5,17.054,5.5H4.946
	C4.812,5.5,4.5,5.5,4.5,6.379v6.576C4.5,13.339,4.577,13.443,4.578,13.444L4.578,13.444z"/>
<path style="fill:#3E4550;" d="M11.169,11.167c-0.148,0-0.299-0.033-0.442-0.104l-7.67-3.788C2.562,7.031,2.359,6.431,2.604,5.936
	s0.841-0.699,1.339-0.454l7.67,3.788c0.495,0.245,0.698,0.844,0.454,1.339C11.892,10.962,11.538,11.167,11.169,11.167z"/>
<path style="fill:#3E4550;" d="M11.233,11.167c-0.361,0-0.709-0.196-0.888-0.538C10.09,10.14,10.28,9.536,10.77,9.28l7.268-3.788
	c0.491-0.256,1.094-0.065,1.349,0.424c0.255,0.49,0.065,1.094-0.424,1.349l-7.268,3.788C11.547,11.131,11.389,11.167,11.233,11.167z
	"/>
</svg>
