<?xml version="1.0" encoding="iso-8859-1"?>
<!-- Generator: Adobe Illustrator 17.0.0, SVG Export Plug-In . SVG Version: 6.00 Build 0)  -->
<!DOCTYPE svg PUBLIC "-//W3C//DTD SVG 1.1//EN" "http://www.w3.org/Graphics/SVG/1.1/DTD/svg11.dtd">
<svg version="1.1" xmlns="http://www.w3.org/2000/svg" xmlns:xlink="http://www.w3.org/1999/xlink" x="0px" y="0px" width="21px"
	 height="21px" viewBox="0 0 21 21" style="enable-background:new 0 0 21 21;" xml:space="preserve">
<g id="Calque_2">
</g>
<g id="Calque_1">
	<g>
		<path style="fill:#3E4550;" d="M9.93,11.526l-1.55,1.186c-0.229,0.183-0.433,0.273-0.661,0.273c-0.479,0-0.866-0.41-0.866-0.889
			c0-0.41,0.296-0.707,0.615-0.821L9.314,10.5L7.467,9.725C7.125,9.588,6.852,9.292,6.852,8.881c0-0.479,0.41-0.866,0.889-0.866
			c0.228,0,0.41,0.091,0.638,0.273l1.55,1.186L9.679,7.627C9.61,7.058,9.952,6.601,10.5,6.601c0.547,0,0.889,0.433,0.82,1.003
			l-0.251,1.87l1.55-1.186c0.229-0.182,0.433-0.273,0.661-0.273c0.479,0,0.867,0.41,0.867,0.889c0,0.41-0.297,0.684-0.616,0.821
			L11.685,10.5l1.847,0.775c0.342,0.137,0.616,0.433,0.616,0.844c0,0.479-0.41,0.866-0.889,0.866c-0.229,0-0.41-0.091-0.639-0.273
			l-1.55-1.186l0.251,1.847c0.069,0.57-0.273,1.026-0.82,1.026c-0.548,0-0.89-0.433-0.821-1.003L9.93,11.526z"/>
	</g>
	<circle style="fill:none;stroke:#3E4550;stroke-width:2;stroke-miterlimit:10;" cx="10.5" cy="10.5" r="7.125"/>
</g>
</svg>
